# xmcd
# 
# Track frame offsets:
#     150
#     12230
#     28185
#     46075
#     58420
#     77135
#     97947
#     112620
#     130450
#     143330
#     152072
#     173787
#     183587
# 
# Disc length: 2711
# 
# Revision: 6
# Processed by: cddbd v1.5.2PL0 Copyright (c) Steve Scherf et al.
# Submitted via: fre:ac v1.0.17
# 
DISCID=a00a950d
DTITLE=Goo Goo Dolls - Dizzy Up The Girl
DYEAR=1998
DGENRE=Rock
TTITLE0=Dizzy
TTITLE1=Slide
TTITLE2=Broadway
TTITLE3=January Friend
TTITLE4=Black Balloon
TTITLE5=Bullet Proof
TTITLE6=Amigone
TTITLE7=All Eyes on Me
TTITLE8=Full Forever
TTITLE9=Acoustic #3
TTITLE10=Iris
TTITLE11=Extra Pale
TTITLE12=Hate This Place
EXTD=
EXTT0=
EXTT1=
EXTT2=
EXTT3=
EXTT4=
EXTT5=
EXTT6=
EXTT7=
EXTT8=
EXTT9=
EXTT10=
EXTT11=
EXTT12=
PLAYORDER=
